<svg height="430pt" viewBox="0 -44 430.08 430" width="430pt" xmlns="http://www.w3.org/2000/svg"><path d="m6.828125 279.933594h416.425781v54.613281h-416.425781zm0 0" fill="#eaeaea"/><path d="m423.253906 341.375h-416.425781c-3.773437 0-6.828125-3.058594-6.828125-6.828125v-54.613281c0-3.769532 3.054688-6.828125 6.828125-6.828125h416.425781c3.773438 0 6.824219 3.058593 6.824219 6.828125v54.613281c0 3.769531-3.050781 6.828125-6.824219 6.828125zm-409.601562-13.65625h402.773437v-40.957031h-402.773437zm0 0" fill="#eaeaea"/><path d="m351.488281 314.066406h36.3125c15.808594 0 28.625-12.816406 28.625-28.625v-215.34375c0-15.808594-12.816406-28.625-28.625-28.625h-46.46875v-10.777344c0-13.160156-10.667969-23.828124-23.828125-23.828124h-116.183594c-13.160156 0-23.828124 10.667968-23.828124 23.828124v10.777344h-128.386719c-15.808594 0-28.625 12.816406-28.625 28.625v215.34375c0 15.808594 12.816406 28.625 28.625 28.625h252.921875" fill="#fff"/><path d="m387.800781 320.894531h-36.3125c-3.773437 0-6.828125-3.058593-6.828125-6.828125 0-3.769531 3.054688-6.828125 6.828125-6.828125h36.3125c12.019531 0 21.800781-9.777343 21.800781-21.792969v-215.347656c0-12.019531-9.78125-21.796875-21.800781-21.796875h-46.46875c-3.773437 0-6.824219-3.054687-6.824219-6.828125v-10.773437c0-9.378907-7.628906-17.003907-17-17.003907h-116.1875c-9.375 0-17 7.625-17 17.003907v10.773437c0 3.773438-3.054687 6.828125-6.828124 6.828125h-128.386719c-12.019531 0-21.796875 9.777344-21.796875 21.796875v215.347656c0 12.015626 9.777344 21.792969 21.796875 21.792969h252.917969c3.773437 0 6.828124 3.058594 6.828124 6.828125 0 3.769532-3.054687 6.828125-6.828124 6.828125h-252.917969c-19.546875 0-35.453125-15.902343-35.453125-35.449219v-215.347656c0-19.546875 15.90625-35.449218 35.453125-35.449218h121.5625v-3.949219c0-16.90625 13.753906-30.6601565 30.652343-30.6601565h116.1875c16.898438 0 30.652344 13.7539065 30.652344 30.6562495v3.949219h39.640625c19.546875 0 35.453125 15.902344 35.453125 35.449219v215.347656c0 19.550782-15.90625 35.453125-35.453125 35.453125zm0 0" fill="#602f75"/><path d="m346.238281 175.722656c0 50.550782-40.980469 91.535156-91.535156 91.535156-50.550781 0-91.53125-40.984374-91.53125-91.535156 0-50.554687 40.980469-91.535156 91.53125-91.535156 50.554687 0 91.535156 40.980469 91.535156 91.535156zm0 0" fill="#ffe600"/><path d="m254.707031 274.082031c-54.234375 0-98.359375-44.125-98.359375-98.359375s44.125-98.363281 98.359375-98.363281 98.359375 44.125 98.359375 98.363281c0 54.238282-44.125 98.359375-98.359375 98.359375zm0-183.066406c-46.707031 0-84.707031 38-84.707031 84.707031 0 46.707032 38 84.707032 84.707031 84.707032s84.707031-38 84.707031-84.707032c0-46.710937-38-84.707031-84.707031-84.707031zm0 0" fill="#ffe600"/><path d="m313.101562 175.722656c0 32.25-26.144531 58.394532-58.398437 58.394532-32.25 0-58.394531-26.144532-58.394531-58.394532s26.144531-58.394531 58.394531-58.394531c32.253906 0 58.398437 26.144531 58.398437 58.394531zm0 0" fill="#00e7ff"/><path d="m254.707031 240.945312c-35.96875 0-65.226562-29.261718-65.226562-65.222656 0-35.964844 29.257812-65.222656 65.226562-65.222656 35.957031 0 65.21875 29.257812 65.21875 65.222656 0 35.960938-29.261719 65.222656-65.21875 65.222656zm0-116.792968c-28.441406 0-51.574219 23.136718-51.574219 51.570312 0 28.4375 23.132813 51.570313 51.574219 51.570313 28.433594 0 51.566407-23.132813 51.566407-51.570313 0-28.433594-23.132813-51.570312-51.566407-51.570312zm0 0" fill="#602f75"/><path d="m388.953125 93.339844c0 11.796875-9.5625 21.359375-21.355469 21.359375-11.796875 0-21.359375-9.5625-21.359375-21.359375 0-11.792969 9.5625-21.355469 21.359375-21.355469 11.792969 0 21.355469 9.5625 21.355469 21.355469zm0 0" fill="#eaeaea"/><path d="m367.601562 121.527344c-15.539062 0-28.1875-12.644532-28.1875-28.1875 0-15.539063 12.644532-28.183594 28.1875-28.183594 15.539063 0 28.179688 12.644531 28.179688 28.183594 0 15.542968-12.640625 28.1875-28.179688 28.1875zm0-42.71875c-8.015624 0-14.535156 6.515625-14.535156 14.53125s6.519532 14.535156 14.535156 14.535156c8.011719 0 14.527344-6.519531 14.527344-14.535156s-6.515625-14.53125-14.527344-14.53125zm0 0" fill="#602f75"/><path d="m78.816406 273.359375h-7.449218c-9.253907 0-16.753907-7.503906-16.753907-16.757813v-151.058593c0-9.253907 7.5-16.757813 16.753907-16.757813h7.449218c9.253906 0 16.757813 7.503906 16.757813 16.757813v151.058593c0 9.253907-7.503907 16.757813-16.757813 16.757813zm0 0" fill="#ea3457"/><path d="m78.820312 280.1875h-7.453124c-13 0-23.578126-10.582031-23.578126-23.585938v-151.058593c-.003906-13.003907 10.578126-23.582031 23.578126-23.582031h7.453124c13 0 23.578126 10.578124 23.578126 23.582031v151.058593c0 13.003907-10.578126 23.585938-23.578126 23.585938zm-7.453124-184.574219c-5.472657 0-9.925782 4.453125-9.925782 9.929688v151.058593c0 5.476563 4.453125 9.929688 9.925782 9.929688h7.453124c5.472657 0 9.925782-4.453125 9.925782-9.929688v-151.058593c0-5.476563-4.453125-9.929688-9.925782-9.929688zm0 0" fill="#602f75"/><path d="m138.761719 41h-79.332031v-10.183594c0-13.226562 10.722656-23.949218 23.953124-23.949218h31.425782c13.230468 0 23.953125 10.722656 23.953125 23.949218zm0 0" fill="#ffe600"/><path d="m138.761719 47.828125h-79.328125c-3.773438 0-6.824219-3.058594-6.824219-6.828125v-10.183594c-.003906-16.96875 13.804687-30.7773435 30.769531-30.7773435h31.433594c16.964844 0 30.773438 13.8085935 30.773438 30.7773435v10.183594c0 3.769531-3.050782 6.828125-6.824219 6.828125zm-72.503907-13.65625h65.675782v-3.355469c0-9.441406-7.679688-17.125-17.121094-17.125h-31.433594c-9.4375 0-17.121094 7.683594-17.121094 17.125zm0 0" fill="#602f75"/></svg>