<?xml version="1.0"?>
<svg xmlns="http://www.w3.org/2000/svg" xmlns:xlink="http://www.w3.org/1999/xlink" version="1.1" id="Capa_1" x="0px" y="0px" viewBox="0 0 464.011 464.011" style="enable-background:new 0 0 464.011 464.011;" xml:space="preserve" width="512px" height="512px" class=""><g><path style="fill:#00D6FF" d="M56.005,128.003c1.642,0,6.386-0.09,8,0c11.558-33.976,34.901-64,72-64  c13.746-0.161,27.373,2.564,40,8c13.6-39.291,53.546-72,96-72c56.606,0,95.132,44.883,104,96h16c39.764,0,72,32.236,72,72  s-32.236,72-72,72c-18.626-1.036-35.996-9.721-48-24c-13.842,13.385-53.37,24-71.619,24c-20.109,0-57.834-8.039-72.381-24  c-15.278,15.831-36.491,24.536-58.486,24c-16.267-1.462-31.911-6.962-45.514-16c-11.837,7.306-24.042,16-40,16  c-39.078,0-56-23.968-56-56S16.928,128.003,56.005,128.003z" data-original="#36AFAD" class="active-path" data-old_color="#00BFFF"/><path style="fill:#FFFFFF;" d="M325.634,110.94c-5.883-32.207-24.625-51.438-50.129-51.438v-16  c33.352,0,58.594,24.738,65.871,64.562L325.634,110.94z" data-original="#FFFFFF"/><g>
	<path style="fill:#87CEE9" d="M232.005,336.003c12.979,0.276,23.724-10.021,24-23c0.007-0.333,0.007-0.667,0-1c0-24-24-56-24-56   s-24,32-24,56c-0.276,12.979,10.021,23.724,23,24C231.339,336.01,231.672,336.01,232.005,336.003z" data-original="#87CEE9" class=""/>
	<path style="fill:#87CEE9" d="M232.005,464.003c12.979,0.276,23.724-10.021,24-23c0.007-0.333,0.007-0.667,0-1c0-24-24-56-24-56   s-24,32-24,56c-0.276,12.979,10.021,23.724,23,24C231.339,464.01,231.672,464.01,232.005,464.003z" data-original="#87CEE9" class=""/>
	<path style="fill:#87CEE9" d="M136.005,400.003c12.979,0.276,23.724-10.021,24-23c0.007-0.333,0.007-0.667,0-1c0-24-24-56-24-56   s-24,32-24,56c-0.276,12.979,10.021,23.724,23,24C135.339,400.01,135.672,400.01,136.005,400.003z" data-original="#87CEE9" class=""/>
	<path style="fill:#87CEE9" d="M328.005,400.003c12.979,0.276,23.724-10.021,24-23c0.007-0.333,0.007-0.667,0-1c0-24-24-56-24-56   s-24,32-24,56c-0.276,12.979,10.021,23.724,23,24C327.339,400.01,327.672,400.01,328.005,400.003z" data-original="#87CEE9" class=""/>
	<path style="fill:#87CEE9" d="M440.005,336.003c12.979,0.276,23.724-10.021,24-23c0.007-0.333,0.007-0.667,0-1c0-24-24-56-24-56   s-24,32-24,56c-0.276,12.979,10.021,23.724,23,24C439.339,336.01,439.672,336.01,440.005,336.003z" data-original="#87CEE9" class=""/>
	<path style="fill:#87CEE9" d="M440.005,464.003c12.979,0.276,23.724-10.021,24-23c0.007-0.333,0.007-0.667,0-1c0-24-24-56-24-56   s-24,32-24,56c-0.276,12.979,10.021,23.724,23,24C439.339,464.01,439.672,464.01,440.005,464.003z" data-original="#87CEE9" class=""/>
	<path style="fill:#87CEE9" d="M24.005,336.003c12.979,0.276,23.724-10.021,24-23c0.007-0.333,0.007-0.667,0-1c0-24-24-56-24-56   s-24,32-24,56c-0.276,12.979,10.021,23.724,23,24C23.339,336.01,23.672,336.01,24.005,336.003z" data-original="#87CEE9" class=""/>
	<path style="fill:#87CEE9" d="M24.005,464.003c12.979,0.276,23.724-10.021,24-23c0.007-0.333,0.007-0.667,0-1c0-24-24-56-24-56   s-24,32-24,56c-0.276,12.979,10.021,23.724,23,24C23.339,464.01,23.672,464.01,24.005,464.003z" data-original="#87CEE9" class=""/>
</g></g> </svg>
