<?xml version="1.0" encoding="iso-8859-1"?>
<!-- Generator: Adobe Illustrator 19.0.0, SVG Export Plug-In . SVG Version: 6.00 Build 0)  -->
<svg version="1.1" id="Capa_1" xmlns="http://www.w3.org/2000/svg" xmlns:xlink="http://www.w3.org/1999/xlink" x="0px" y="0px"
	 viewBox="0 0 512 512" style="enable-background:new 0 0 512 512;" xml:space="preserve">
<path style="fill:#303C42;" d="M143.396,363.771c-3.646-1.823-8-1.396-11.208,1.094l-33.146,25.365
	c-8.708,6.188-13.708,15.563-13.708,25.771c0,17.646,14.354,32,32,32s32-14.354,32-32v-42.667
	C149.333,369.271,147.021,365.563,143.396,363.771z"/>
<path style="fill:#00AAE7;" d="M128,416c0,5.885-4.792,10.667-10.667,10.667s-10.667-4.781-10.667-10.667
	c0-4.417,3-7.188,4.813-8.438c0.125-0.083,0.229-0.177,0.354-0.271L128,394.927V416z"/>
<path style="fill:#303C42;" d="M260.729,427.771c-3.646-1.813-8-1.396-11.208,1.094l-33.146,25.365
	c-8.708,6.177-13.708,15.552-13.708,25.771c0,17.646,14.354,32,32,32s32-14.354,32-32v-42.667
	C266.667,433.271,264.354,429.563,260.729,427.771z"/>
<path style="fill:#00AAE7;" d="M245.333,480c0,5.885-4.792,10.667-10.667,10.667S224,485.885,224,480c0-4.417,3-7.167,4.792-8.417
	c0.125-0.094,0.25-0.188,0.375-0.281l16.167-12.375V480z"/>
<path style="fill:#303C42;" d="M378.063,363.771c-3.646-1.823-8-1.396-11.208,1.094l-33.146,25.365C325,396.417,320,405.792,320,416
	c0,17.646,14.354,32,32,32c17.646,0,32-14.354,32-32v-42.667C384,369.271,381.688,365.563,378.063,363.771z"/>
<path style="fill:#00AAE7;" d="M362.667,416c0,5.885-4.792,10.667-10.667,10.667s-10.667-4.781-10.667-10.667
	c0-4.417,3-7.188,4.813-8.438c0.125-0.083,0.229-0.177,0.354-0.271l16.167-12.365V416z"/>
<path style="fill:#303C42;" d="M394.667,106.667c-0.762,0-1.513,0.171-2.273,0.186C366.741,42.762,304.542,0,234.667,0
	C145.935,0,72.861,67.509,65.111,154.884C27.374,167.822,0,203.263,0,245.333c0,52.938,43.063,96,96,96h106.451l-10.242,51.24
	c-0.979,4.938,1.604,9.885,6.208,11.885c1.375,0.594,2.813,0.875,4.25,0.875c3.354,0,6.625-1.594,8.688-4.469l42.522-59.531h140.79
	C459.354,341.333,512,288.698,512,224S459.354,106.667,394.667,106.667z"/>
<path style="fill:#FFCE34;" d="M234.458,290.094c0.625-3.135-0.188-6.385-2.208-8.854c-2.021-2.469-5.063-3.906-8.25-3.906h-43.271
	l65.729-92.031l-11.583,57.938c-0.625,3.135,0.188,6.385,2.208,8.854c2.021,2.469,5.063,3.906,8.25,3.906h43.271l-65.729,92.031
	L234.458,290.094z"/>
<path style="fill:#BBDEFB;" d="M394.667,320H269.115l48.906-68.469c2.313-3.25,2.625-7.531,0.792-11.083
	c-1.833-3.552-5.479-5.781-9.479-5.781h-50.979l18.771-93.906c0.979-4.938-1.604-9.885-6.208-11.885
	c-4.563-1.969-9.979-0.5-12.938,3.594L151.313,281.802c-2.313,3.25-2.625,7.531-0.792,11.083c1.833,3.552,5.479,5.781,9.479,5.781
	h50.979L206.715,320H96c-41.167,0-74.667-33.5-74.667-74.667s33.5-74.667,74.667-74.667c5.896,0,10.667-4.771,10.667-10.667
	c0-5.896-4.771-10.667-10.667-10.667c-3.098,0-6.021,0.626-9.044,0.914c9.751-73.22,72.298-128.914,147.711-128.914
	c59.223,0,112.033,35.142,135.678,88.26c-16.501,3.553-32.368,10.339-46.053,20.51c-4.708,3.521-5.708,10.198-2.188,14.927
	c3.521,4.729,10.229,5.667,14.917,2.198C353.708,134.833,374.167,128,394.667,128c52.938,0,96,43.063,96,96S447.604,320,394.667,320
	z"/>
<path style="opacity:0.2;fill:#FFFFFF;enable-background:new    ;" d="M101.918,151.361
	c17.549-62.978,75.138-108.694,143.415-108.694c50.949,0,97.027,26.111,123.999,67.198c0.341-0.077,0.672-0.197,1.013-0.271
	c-23.646-53.118-76.456-88.26-135.678-88.26c-75.413,0-137.96,55.694-147.711,128.914c3.023-0.288,5.947-0.914,9.044-0.914
	C98.241,149.333,100.202,150.182,101.918,151.361z"/>
<path style="opacity:0.1;enable-background:new    ;" d="M478.628,178.417C479.27,182.893,480,187.349,480,192
	c0,52.938-43.063,96-96,96h-92.029l-22.857,32h125.552c52.938,0,96-43.063,96-96C490.667,207.417,486.059,192.042,478.628,178.417z"
	/>
<path style="opacity:0.1;enable-background:new    ;" d="M150.521,292.885c-0.792-1.534-0.999-3.22-1.001-4.885H85.333
	c-26.758,0-50.089-14.273-63.273-35.486C25.737,290.276,57.292,320,96,320h110.715l4.264-21.333H160
	C156,298.667,152.354,296.438,150.521,292.885z"/>
<linearGradient id="SVGID_1_" gradientUnits="userSpaceOnUse" x1="-45.1803" y1="639.2375" x2="-25.0051" y2="629.8294" gradientTransform="matrix(21.3333 0 0 -21.3333 996.3334 13791.667)">
	<stop  offset="0" style="stop-color:#FFFFFF;stop-opacity:0.2"/>
	<stop  offset="1" style="stop-color:#FFFFFF;stop-opacity:0"/>
</linearGradient>
<path style="fill:url(#SVGID_1_);" d="M143.396,363.771c-3.646-1.823-8-1.396-11.208,1.094l-33.146,25.365
	c-8.708,6.188-13.708,15.563-13.708,25.771c0,17.646,14.354,32,32,32s32-14.354,32-32v-42.667
	C149.333,369.271,147.021,365.563,143.396,363.771z M260.729,427.771c-3.646-1.813-8-1.396-11.208,1.094l-33.146,25.365
	c-8.708,6.177-13.708,15.552-13.708,25.771c0,17.646,14.354,32,32,32s32-14.354,32-32v-42.667
	C266.667,433.271,264.354,429.563,260.729,427.771z M378.063,363.771c-3.646-1.823-8-1.396-11.208,1.094l-33.146,25.365
	C325,396.417,320,405.792,320,416c0,17.646,14.354,32,32,32c17.646,0,32-14.354,32-32v-42.667
	C384,369.271,381.688,365.563,378.063,363.771z M394.667,106.667c-0.762,0-1.513,0.171-2.273,0.186
	C366.741,42.762,304.542,0,234.667,0C145.935,0,72.861,67.509,65.111,154.884C27.374,167.822,0,203.263,0,245.333
	c0,52.938,43.063,96,96,96h106.451l-10.242,51.24c-0.979,4.938,1.604,9.885,6.208,11.885c1.375,0.594,2.813,0.875,4.25,0.875
	c3.354,0,6.625-1.594,8.688-4.469l42.522-59.531h140.79C459.354,341.333,512,288.698,512,224S459.354,106.667,394.667,106.667z"/>
<g>
</g>
<g>
</g>
<g>
</g>
<g>
</g>
<g>
</g>
<g>
</g>
<g>
</g>
<g>
</g>
<g>
</g>
<g>
</g>
<g>
</g>
<g>
</g>
<g>
</g>
<g>
</g>
<g>
</g>
</svg>
